<svg xmlns="http://www.w3.org/2000/svg" viewBox="0 0 100 100">
  <!-- Background circle -->
  <circle cx="50" cy="50" r="48" fill="#4f46e5"/>
  
  <!-- Otter face -->
  <ellipse cx="50" cy="55" rx="30" ry="28" fill="#8B6914"/>
  
  <!-- Inner face / muzzle -->
  <ellipse cx="50" cy="62" rx="20" ry="16" fill="#D4A84B"/>
  
  <!-- Eyes -->
  <circle cx="38" cy="48" r="8" fill="white"/>
  <circle cx="62" cy="48" r="8" fill="white"/>
  <circle cx="39" cy="49" r="5" fill="#1f2937"/>
  <circle cx="63" cy="49" r="5" fill="#1f2937"/>
  <circle cx="40" cy="47" r="2" fill="white"/>
  <circle cx="64" cy="47" r="2" fill="white"/>
  
  <!-- Nose -->
  <ellipse cx="50" cy="58" rx="6" ry="4" fill="#1f2937"/>
  
  <!-- Whisker dots -->
  <circle cx="35" cy="62" r="2" fill="#8B6914"/>
  <circle cx="30" cy="65" r="2" fill="#8B6914"/>
  <circle cx="65" cy="62" r="2" fill="#8B6914"/>
  <circle cx="70" cy="65" r="2" fill="#8B6914"/>
  
  <!-- Ears -->
  <ellipse cx="28" cy="38" rx="8" ry="6" fill="#8B6914"/>
  <ellipse cx="72" cy="38" rx="8" ry="6" fill="#8B6914"/>
  <ellipse cx="28" cy="38" rx="5" ry="4" fill="#D4A84B"/>
  <ellipse cx="72" cy="38" rx="5" ry="4" fill="#D4A84B"/>
  
  <!-- Mouth / smile -->
  <path d="M 42 68 Q 50 75 58 68" stroke="#1f2937" stroke-width="2" fill="none" stroke-linecap="round"/>
  
  <!-- Speech bubble indicator -->
  <ellipse cx="78" cy="25" rx="12" ry="10" fill="white"/>
  <polygon points="70,30 75,35 78,28" fill="white"/>
  <text x="78" y="28" text-anchor="middle" font-size="12" fill="#4f46e5" font-weight="bold">話</text>
</svg>
